<svg xmlns="http://www.w3.org/2000/svg" xmlns:xlink="http://www.w3.org/1999/xlink" width="59.379" height="58" viewBox="0 0 59.379 58">
  <defs>
    <filter id="Path_17" x="0" y="0" width="59.379" height="58" filterUnits="userSpaceOnUse">
      <feOffset dy="3" input="SourceAlpha"/>
      <feGaussianBlur stdDeviation="3" result="blur"/>
      <feFlood flood-opacity="0.161"/>
      <feComposite operator="in" in2="blur"/>
      <feComposite in="SourceGraphic"/>
    </filter>
  </defs>
  <g id="date_range-24px" transform="translate(2.104 2)">
    <path id="Path_16" data-name="Path 16" d="M0,0H55.172V48H0Z" fill="none"/>
    <g transform="matrix(1, 0, 0, 1, -2.1, -2)" filter="url(#Path_17)">
      <path id="Path_17-2" data-name="Path 17" d="M16.793,20H12.2v4h4.6Zm9.2,0h-4.6v4h4.6Zm9.2,0h-4.6v4h4.6Zm4.6-14h-2.3V2h-4.6V6H14.494V2H9.9V6H7.6a4.307,4.307,0,0,0-4.575,4L3,38c0,2.2,2.046,4,4.6,4H39.781c2.529,0,4.6-1.8,4.6-4V10C44.379,7.8,42.31,6,39.781,6Zm0,32H7.6V16H39.781Z" transform="translate(6 4)" fill="#b9b9b9"/>
    </g>
  </g>
</svg>
