<svg xmlns="http://www.w3.org/2000/svg" width="63" height="45.668" viewBox="0 0 63 45.668">
  <g id="parked-car" transform="translate(0 -37.486)">
    <path id="Path_25" data-name="Path 25" d="M44.677,90.554a2.341,2.341,0,0,0-.619.086l-2.351.648L39.265,85.34a5.329,5.329,0,0,0-4.558-3.056H11.855A5.328,5.328,0,0,0,7.3,85.34L4.859,91.28l-2.322-.64a2.338,2.338,0,0,0-.619-.086A1.906,1.906,0,0,0,0,92.573v1.386a2.479,2.479,0,0,0,2.476,2.476h.266l-.394.96A18.574,18.574,0,0,0,1.182,103.3V115.12A2.479,2.479,0,0,0,3.659,117.6H6.893a2.479,2.479,0,0,0,2.476-2.476v-2.951H37.193v2.951a2.479,2.479,0,0,0,2.476,2.476H42.9a2.479,2.479,0,0,0,2.476-2.476V103.3A18.576,18.576,0,0,0,44.213,97.4l-.394-.96h.3a2.479,2.479,0,0,0,2.476-2.476V92.573A1.905,1.905,0,0,0,44.677,90.554ZM6.634,95.09l3.694-9a3.2,3.2,0,0,1,2.733-1.833H33.5a3.2,3.2,0,0,1,2.733,1.833l3.694,9A1.236,1.236,0,0,1,38.7,96.923H7.863A1.236,1.236,0,0,1,6.634,95.09Zm8.245,11.38a.993.993,0,0,1-.99.99H6.873a.993.993,0,0,1-.991-.99V103.1a.993.993,0,0,1,.991-.99h7.017a.993.993,0,0,1,.99.99Zm25.734,0a.993.993,0,0,1-.99.99H32.607a.993.993,0,0,1-.99-.99V103.1a.993.993,0,0,1,.99-.99h7.017a.993.993,0,0,1,.99.99Z" transform="translate(0 -34.442)" fill="#ffe8ff"/>
    <g id="Group_26" data-name="Group 26" transform="translate(45.077 37.486)">
      <path id="Path_26" data-name="Path 26" d="M209.818,37.486H198.089a3.1,3.1,0,0,0-3.1,3.1V52.312a3.1,3.1,0,0,0,3.1,3.1H202.8V81.734a1.156,1.156,0,0,0,2.312,0V55.41h4.709a3.1,3.1,0,0,0,3.1-3.1V40.583A3.1,3.1,0,0,0,209.818,37.486Zm-2.656,9.725a4.293,4.293,0,0,1-2.953.915h-1.7a.371.371,0,0,0-.37.37V51.36a.565.565,0,0,1-.564.564H200.29a.565.565,0,0,1-.564-.564V41.536a.565.565,0,0,1,.564-.565h3.24c2.146,0,2.948.323,3.606.882a3.337,3.337,0,0,1,1.046,2.683A3.43,3.43,0,0,1,207.161,47.211Z" transform="translate(-194.992 -37.486)" fill="#ffe8ff"/>
      <path id="Path_27" data-name="Path 27" d="M229.1,61.638a2.844,2.844,0,0,0-1.648-.357h-1.165a.37.37,0,0,0-.37.37V64a.37.37,0,0,0,.37.37h.7c.256,0,.671-.019.923-.042a3.161,3.161,0,0,0,1.192-.315,1.769,1.769,0,0,0,0-2.379Z" transform="translate(-218.765 -55.78)" fill="#ffe8ff"/>
    </g>
  </g>
</svg>
