<svg xmlns="http://www.w3.org/2000/svg" width="139.8" height="101.34" viewBox="0 0 139.8 101.34">
  <g id="parked-car" transform="translate(0 -37.486)">
    <path id="Path_25" data-name="Path 25" d="M99.139,100.636a5.2,5.2,0,0,0-1.373.191l-5.218,1.437-5.418-13.2a11.825,11.825,0,0,0-10.115-6.782H26.307a11.823,11.823,0,0,0-10.114,6.782l-5.411,13.181-5.153-1.419a5.189,5.189,0,0,0-1.373-.191A4.229,4.229,0,0,0,0,105.115v3.076a5.5,5.5,0,0,0,5.5,5.5h.59l-.875,2.13a41.216,41.216,0,0,0-2.587,13.111v26.221a5.5,5.5,0,0,0,5.5,5.5H15.3a5.5,5.5,0,0,0,5.5-5.5V148.6H82.532v6.548a5.5,5.5,0,0,0,5.5,5.5H95.2a5.5,5.5,0,0,0,5.5-5.5V128.928a41.221,41.221,0,0,0-2.587-13.111l-.875-2.13H97.9a5.5,5.5,0,0,0,5.5-5.5v-3.076A4.228,4.228,0,0,0,99.139,100.636ZM14.722,110.7l8.2-19.964a7.106,7.106,0,0,1,6.065-4.067H74.34a7.1,7.1,0,0,1,6.065,4.067L88.6,110.7c.918,2.237-.309,4.067-2.727,4.067H17.449C15.03,114.768,13.8,112.938,14.722,110.7Zm18.3,25.253a2.2,2.2,0,0,1-2.2,2.2H15.251a2.2,2.2,0,0,1-2.2-2.2v-7.472a2.2,2.2,0,0,1,2.2-2.2h15.57a2.2,2.2,0,0,1,2.2,2.2Zm57.1,0a2.2,2.2,0,0,1-2.2,2.2H72.355a2.2,2.2,0,0,1-2.2-2.2v-7.472a2.2,2.2,0,0,1,2.2-2.2h15.57a2.2,2.2,0,0,1,2.2,2.2Z" transform="translate(0 -21.817)" fill="#707070"/>
    <g id="Group_26" data-name="Group 26" transform="translate(100.028 37.486)">
      <path id="Path_26" data-name="Path 26" d="M227.891,37.486H201.865a6.881,6.881,0,0,0-6.873,6.873V70.386a6.881,6.881,0,0,0,6.873,6.873h10.448v58.415a2.565,2.565,0,0,0,5.13,0V77.26h10.448a6.881,6.881,0,0,0,6.873-6.873V44.359A6.881,6.881,0,0,0,227.891,37.486ZM222,59.066c-1.5,1.348-3.7,2.031-6.553,2.031h-3.769a.822.822,0,0,0-.821.821v6.355a1.253,1.253,0,0,1-1.252,1.252h-2.854a1.253,1.253,0,0,1-1.252-1.252v-21.8a1.254,1.254,0,0,1,1.252-1.253h7.19c4.763,0,6.541.718,8,1.958,1.541,1.308,2.322,3.31,2.322,5.954A7.611,7.611,0,0,1,222,59.066Z" transform="translate(-194.992 -37.486)" fill="#707070"/>
      <path id="Path_27" data-name="Path 27" d="M232.976,62.073a6.311,6.311,0,0,0-3.657-.792h-2.585a.822.822,0,0,0-.821.82v5.223a.822.822,0,0,0,.821.82h1.549c.569,0,1.488-.042,2.049-.094a7.014,7.014,0,0,0,2.644-.7,3.926,3.926,0,0,0,0-5.28Z" transform="translate(-210.051 -49.075)" fill="#707070"/>
    </g>
  </g>
</svg>
